<svg id="svg" version="1.1" xmlns="http://www.w3.org/2000/svg" xmlns:xlink="http://www.w3.org/1999/xlink" width="400" height="196.24145785876993" viewBox="0, 0, 400,196.24145785876993"><g id="svgg"><path id="path0" d="M134.915 1.581 C 129.386 3.073,125.345 7.277,120.583 16.492 L 119.417 18.750 89.750 18.840 C 56.534 18.940,58.685 18.864,52.083 20.184 C 33.289 23.942,22.109 30.895,15.663 42.833 C 6.452 59.895,3.201 67.707,1.932 75.833 C 1.336 79.654,0.874 83.602,0.472 88.333 C 0.198 91.560,0.195 104.846,0.468 107.833 C 0.582 109.071,0.750 110.908,0.843 111.917 C 0.935 112.925,1.081 114.275,1.167 114.917 C 1.253 115.558,1.406 116.721,1.507 117.500 C 2.041 121.607,3.204 126.325,4.724 130.556 C 5.209 131.906,5.281 132.265,5.132 132.594 C 4.845 133.222,5.151 134.035,5.787 134.333 C 6.088 134.474,6.410 134.801,6.526 135.083 C 7.181 136.679,9.842 142.182,11.223 144.801 C 12.109 146.478,12.834 148.053,12.836 148.301 C 12.840 149.091,13.031 149.507,13.501 149.751 C 13.816 149.913,14.210 150.474,14.755 151.536 C 20.796 163.296,29.541 170.022,44.263 174.231 C 55.421 177.421,56.568 177.500,91.874 177.500 L 119.497 177.500 120.494 179.489 C 125.172 188.821,130.145 193.835,135.622 194.744 C 137.840 195.113,138.826 193.490,138.012 190.809 C 137.835 190.227,137.415 188.700,137.079 187.417 C 136.743 186.133,136.329 184.558,136.158 183.917 C 135.419 181.146,134.695 178.383,134.598 177.958 L 134.494 177.500 238.889 177.500 L 343.285 177.500 346.184 177.086 C 360.161 175.089,371.561 172.134,379.173 168.537 C 384.709 165.920,390.616 160.244,392.827 155.416 C 394.278 152.247,395.834 146.719,396.322 143.000 C 396.400 142.404,396.583 141.242,396.729 140.417 C 397.147 138.046,397.913 131.306,398.158 127.833 C 398.239 126.688,398.382 124.925,398.475 123.917 C 398.776 120.681,399.127 114.580,399.503 106.083 C 399.600 103.883,399.723 101.596,399.777 101.000 C 399.942 99.158,399.916 95.923,399.702 91.750 C 399.589 89.550,399.423 86.212,399.334 84.333 C 399.182 81.151,399.030 78.705,398.678 73.750 C 398.279 68.140,398.052 65.562,397.661 62.208 C 397.234 58.551,397.132 57.776,396.834 55.917 C 396.658 54.817,396.467 53.579,396.411 53.167 C 395.876 49.276,394.378 44.017,392.921 40.917 C 390.041 34.789,382.759 28.486,376.071 26.335 C 375.711 26.219,374.967 25.936,374.417 25.706 C 370.195 23.942,359.300 21.303,349.833 19.751 C 348.412 19.518,346.800 19.236,346.250 19.123 C 345.467 18.963,322.369 18.909,240.007 18.875 C 182.124 18.851,134.703 18.770,134.629 18.696 C 134.512 18.579,134.970 16.650,136.177 12.167 C 136.337 11.571,136.743 10.033,137.079 8.750 C 137.415 7.467,137.835 5.940,138.012 5.357 C 138.928 2.341,137.691 0.831,134.915 1.581 M235.000 28.503 C 238.621 28.592,244.471 28.742,248.000 28.836 C 251.529 28.931,257.679 29.079,261.667 29.167 C 265.654 29.254,271.729 29.400,275.167 29.490 C 278.604 29.581,284.754 29.737,288.833 29.837 C 292.912 29.937,296.319 30.087,296.403 30.171 C 296.692 30.458,296.228 33.714,295.854 34.016 C 295.674 34.163,294.526 34.526,293.304 34.824 C 282.847 37.370,271.443 40.203,270.811 40.412 C 270.135 40.635,267.520 40.667,249.773 40.667 L 229.508 40.667 229.258 40.285 C 229.120 40.075,228.735 38.557,228.401 36.910 C 228.067 35.264,227.607 33.017,227.379 31.917 C 226.841 29.328,226.777 28.887,226.893 28.584 C 227.007 28.287,226.469 28.292,235.000 28.503 M221.753 29.042 C 221.889 29.340,222.573 31.571,223.272 34.000 C 225.220 40.765,225.115 40.325,224.829 40.507 C 224.679 40.602,217.521 40.648,206.417 40.623 L 188.250 40.583 184.833 39.706 C 182.954 39.224,180.817 38.671,180.083 38.478 C 179.350 38.285,177.737 37.885,176.500 37.588 C 173.704 36.917,169.174 35.786,166.750 35.153 C 165.742 34.889,163.342 34.292,161.417 33.825 C 157.191 32.801,157.167 32.788,157.167 31.600 C 157.167 30.211,155.591 30.356,177.333 29.746 C 182.237 29.608,188.537 29.424,191.333 29.336 C 194.129 29.249,199.267 29.093,202.750 28.991 C 206.233 28.888,210.358 28.747,211.917 28.677 C 213.475 28.607,216.270 28.539,218.128 28.525 L 221.505 28.500 221.753 29.042 M126.280 31.319 C 127.639 31.677,131.412 32.659,134.667 33.499 C 137.921 34.340,144.183 35.962,148.583 37.104 C 152.983 38.246,158.346 39.634,160.500 40.190 C 162.654 40.745,165.654 41.523,167.167 41.918 C 168.679 42.314,171.867 43.139,174.250 43.751 C 178.501 44.843,179.127 45.095,178.922 45.630 C 178.698 46.213,176.594 57.137,175.849 61.583 C 171.053 90.198,171.169 108.119,176.340 137.532 C 176.927 140.876,178.718 150.001,178.918 150.667 C 179.065 151.159,178.691 151.356,176.569 151.911 C 175.385 152.220,169.729 153.684,164.000 155.164 C 158.271 156.644,149.233 158.980,143.917 160.355 C 138.600 161.729,132.487 163.306,130.333 163.858 C 128.179 164.410,125.893 165.005,125.253 165.181 C 123.182 165.749,123.174 165.746,121.175 163.706 C 109.113 151.396,102.004 127.062,102.004 98.083 C 102.004 69.735,108.533 46.736,120.405 33.269 C 122.869 30.474,122.963 30.443,126.280 31.319 M39.402 30.975 C 39.540 31.200,39.197 33.109,38.723 34.750 C 36.751 41.576,30.116 47.113,20.952 49.582 C 19.474 49.980,19.313 49.836,19.894 48.639 C 21.398 45.539,25.037 41.134,28.667 38.021 C 33.383 33.976,38.984 30.300,39.402 30.975 M359.262 43.590 C 362.520 45.151,367.559 58.938,369.659 72.035 C 371.626 84.306,371.930 106.269,370.315 119.500 C 368.890 131.170,366.183 140.946,362.235 148.671 C 359.754 153.529,360.521 153.286,349.000 152.855 C 346.021 152.743,341.633 152.582,339.250 152.496 C 336.867 152.411,332.817 152.264,330.250 152.171 C 327.683 152.077,322.133 151.890,317.917 151.755 C 304.747 151.333,305.200 151.385,303.996 150.175 C 302.668 148.842,302.608 148.254,303.423 144.578 C 306.256 131.797,308.443 115.263,309.015 102.298 C 309.547 90.235,307.378 70.529,303.481 52.023 C 302.578 47.736,302.807 46.546,304.755 45.405 C 305.657 44.877,305.632 44.878,319.667 44.417 C 327.084 44.174,331.262 44.028,341.000 43.672 C 343.429 43.583,347.929 43.430,351.000 43.331 C 354.071 43.232,356.658 43.120,356.750 43.082 C 357.111 42.933,358.460 43.206,359.262 43.590 M12.333 64.239 C 12.333 64.279,12.441 64.826,12.574 65.454 C 13.785 71.214,13.871 73.655,13.789 100.000 C 13.714 124.281,13.728 123.834,12.903 128.808 C 12.258 132.701,12.189 132.779,11.045 130.905 C 9.512 128.392,8.024 124.241,7.306 120.474 C 6.891 118.296,6.623 83.675,6.984 78.821 C 7.341 74.009,8.708 69.486,11.095 65.218 C 11.587 64.338,12.333 63.748,12.333 64.239 M23.500 147.595 C 32.485 150.753,38.306 156.854,39.312 164.167 C 39.529 165.739,39.432 165.794,37.898 164.977 C 31.579 161.611,24.220 154.877,20.802 149.333 C 18.851 146.169,19.060 146.035,23.500 147.595 M224.945 155.931 C 225.001 156.076,224.580 157.782,224.010 159.722 C 223.440 161.663,222.700 164.181,222.365 165.318 C 221.549 168.090,221.925 167.883,217.931 167.762 C 216.090 167.706,212.108 167.587,209.083 167.497 C 206.058 167.407,201.183 167.260,198.250 167.169 C 195.317 167.078,190.367 166.928,187.250 166.835 C 184.133 166.742,179.146 166.590,176.167 166.498 C 173.188 166.407,167.790 166.253,164.173 166.156 C 156.869 165.962,157.165 166.021,157.169 164.771 C 157.173 163.399,156.932 163.530,161.500 162.423 C 163.287 161.990,165.425 161.458,166.250 161.242 C 168.942 160.535,174.537 159.142,176.666 158.649 C 177.812 158.383,179.087 158.059,179.500 157.927 C 179.912 157.796,180.700 157.600,181.250 157.492 C 182.509 157.245,188.052 155.837,188.149 155.739 C 188.398 155.491,224.849 155.680,224.945 155.931 M273.250 156.449 C 276.824 157.372,281.267 158.485,289.120 160.425 C 296.825 162.328,296.135 161.976,296.369 164.122 C 296.619 166.423,296.723 166.334,293.771 166.333 C 292.476 166.332,288.979 166.404,286.000 166.492 C 279.469 166.686,269.133 166.948,259.417 167.166 C 251.377 167.347,241.667 167.594,233.333 167.830 C 230.262 167.917,227.544 167.945,227.292 167.892 C 226.689 167.764,226.696 167.573,227.420 164.167 C 227.741 162.654,228.243 160.226,228.534 158.771 C 228.826 157.316,229.169 156.022,229.296 155.894 C 229.492 155.699,232.708 155.670,250.056 155.711 L 270.583 155.760 273.250 156.449 " stroke="none" fill="#fb4444" fill-rule="evenodd"></path><path id="path1" d="M226.893 28.584 C 226.777 28.887,226.841 29.328,227.379 31.917 C 227.607 33.017,228.067 35.264,228.401 36.910 C 228.735 38.557,229.120 40.075,229.258 40.285 L 229.508 40.667 249.773 40.667 C 267.520 40.667,270.135 40.635,270.811 40.412 C 271.443 40.203,282.847 37.370,293.304 34.824 C 294.526 34.526,295.674 34.163,295.854 34.016 C 296.228 33.714,296.692 30.458,296.403 30.171 C 296.319 30.087,292.912 29.937,288.833 29.837 C 284.754 29.737,278.604 29.581,275.167 29.490 C 271.729 29.400,265.654 29.254,261.667 29.167 C 257.679 29.079,251.529 28.931,248.000 28.836 C 239.505 28.610,228.595 28.341,227.703 28.337 C 227.219 28.334,226.959 28.414,226.893 28.584 M211.917 28.677 C 210.358 28.747,206.233 28.888,202.750 28.991 C 199.267 29.093,194.129 29.249,191.333 29.336 C 188.537 29.424,182.237 29.608,177.333 29.746 C 155.591 30.356,157.167 30.211,157.167 31.600 C 157.167 32.788,157.191 32.801,161.417 33.825 C 163.342 34.292,165.742 34.889,166.750 35.153 C 169.174 35.786,173.704 36.917,176.500 37.588 C 177.737 37.885,179.350 38.285,180.083 38.478 C 180.817 38.671,182.954 39.224,184.833 39.706 L 188.250 40.583 206.417 40.623 C 217.521 40.648,224.679 40.602,224.829 40.507 C 225.115 40.325,225.220 40.765,223.272 34.000 C 222.573 31.571,221.889 29.340,221.753 29.042 L 221.505 28.500 218.128 28.525 C 216.270 28.539,213.475 28.607,211.917 28.677 M122.307 31.394 C 112.812 39.152,104.814 59.945,102.746 82.249 C 99.530 116.924,106.794 149.029,121.175 163.706 C 123.174 165.746,123.182 165.749,125.253 165.181 C 125.893 165.005,128.179 164.410,130.333 163.858 C 132.487 163.306,138.600 161.729,143.917 160.355 C 149.233 158.980,158.271 156.644,164.000 155.164 C 169.729 153.684,175.385 152.220,176.569 151.911 C 178.691 151.356,179.065 151.159,178.918 150.667 C 178.718 150.001,176.927 140.876,176.340 137.532 C 171.169 108.119,171.053 90.198,175.849 61.583 C 176.594 57.137,178.698 46.213,178.922 45.630 C 179.127 45.095,178.501 44.843,174.250 43.751 C 171.867 43.139,168.679 42.314,167.167 41.918 C 165.654 41.523,162.654 40.745,160.500 40.190 C 158.346 39.634,152.983 38.246,148.583 37.104 C 144.183 35.962,137.921 34.340,134.667 33.499 C 131.412 32.659,127.639 31.677,126.280 31.319 C 123.238 30.515,123.386 30.513,122.307 31.394 M356.750 43.082 C 356.658 43.120,354.071 43.232,351.000 43.331 C 347.929 43.430,343.429 43.583,341.000 43.672 C 331.262 44.028,327.084 44.174,319.667 44.417 C 305.632 44.878,305.657 44.877,304.755 45.405 C 302.807 46.546,302.578 47.736,303.481 52.023 C 307.378 70.529,309.547 90.235,309.015 102.298 C 308.443 115.263,306.256 131.797,303.423 144.578 C 302.608 148.254,302.668 148.842,303.996 150.175 C 305.200 151.385,304.747 151.333,317.917 151.755 C 322.133 151.890,327.683 152.077,330.250 152.171 C 332.817 152.264,336.867 152.411,339.250 152.496 C 341.633 152.582,346.021 152.743,349.000 152.855 C 360.521 153.286,359.754 153.529,362.235 148.671 C 366.183 140.946,368.890 131.170,370.315 119.500 C 371.670 108.398,371.673 87.993,370.320 76.833 C 368.731 63.717,364.715 50.412,360.626 44.719 C 359.887 43.690,357.608 42.728,356.750 43.082 M11.095 65.218 C 8.708 69.486,7.341 74.009,6.984 78.821 C 6.623 83.675,6.891 118.296,7.306 120.474 C 8.024 124.241,9.512 128.392,11.045 130.905 C 12.189 132.779,12.258 132.701,12.903 128.808 C 13.728 123.834,13.714 124.281,13.789 100.000 C 13.871 73.655,13.785 71.214,12.574 65.454 C 12.441 64.826,12.333 64.279,12.333 64.239 C 12.333 63.748,11.587 64.338,11.095 65.218 M188.149 155.739 C 188.052 155.837,182.509 157.245,181.250 157.492 C 180.700 157.600,179.912 157.796,179.500 157.927 C 179.087 158.059,177.812 158.383,176.666 158.649 C 174.537 159.142,168.942 160.535,166.250 161.242 C 165.425 161.458,163.287 161.990,161.500 162.423 C 156.932 163.530,157.173 163.399,157.169 164.771 C 157.165 166.021,156.869 165.962,164.173 166.156 C 167.790 166.253,173.188 166.407,176.167 166.498 C 179.146 166.590,184.133 166.742,187.250 166.835 C 190.367 166.928,195.317 167.078,198.250 167.169 C 201.183 167.260,206.058 167.407,209.083 167.497 C 212.108 167.587,216.090 167.706,217.931 167.762 C 221.925 167.883,221.549 168.090,222.365 165.318 C 222.700 164.181,223.440 161.663,224.010 159.722 C 224.580 157.782,225.001 156.076,224.945 155.931 C 224.849 155.680,188.398 155.491,188.149 155.739 M229.296 155.894 C 229.169 156.022,228.826 157.316,228.534 158.771 C 228.243 160.226,227.741 162.654,227.420 164.167 C 226.696 167.573,226.689 167.764,227.292 167.892 C 227.544 167.945,230.262 167.917,233.333 167.830 C 241.667 167.594,251.377 167.347,259.417 167.166 C 269.133 166.948,279.469 166.686,286.000 166.492 C 288.979 166.404,292.476 166.332,293.771 166.333 C 296.723 166.334,296.619 166.423,296.369 164.122 C 296.135 161.976,296.825 162.328,289.120 160.425 C 281.267 158.485,276.824 157.372,273.250 156.449 L 270.583 155.760 250.056 155.711 C 232.708 155.670,229.492 155.699,229.296 155.894 " stroke="none" fill="#444444" fill-rule="evenodd"></path><path id="path2" d="M37.500 31.635 C 34.694 33.220,31.956 35.200,28.667 38.021 C 25.037 41.134,21.398 45.539,19.894 48.639 C 19.313 49.836,19.474 49.980,20.952 49.582 C 31.287 46.798,38.038 40.405,39.323 32.184 C 39.580 30.535,39.492 30.509,37.500 31.635 M19.651 146.676 C 19.470 146.788,19.485 146.931,19.730 147.448 C 22.424 153.124,30.777 161.183,37.898 164.977 C 39.432 165.794,39.529 165.739,39.312 164.167 C 38.597 158.968,35.317 154.143,30.293 150.897 C 27.069 148.814,20.444 146.186,19.651 146.676 " stroke="none" fill="#e4f2fa" fill-rule="evenodd"></path></g></svg>